<svg id="Layer_5" enable-background="new 0 0 64 64" height="512" viewBox="0 0 64 64" width="512" xmlns="http://www.w3.org/2000/svg" xmlns:xlink="http://www.w3.org/1999/xlink"><linearGradient id="SVGID_1_" gradientUnits="userSpaceOnUse" x1="32" x2="32" y1="63" y2="1"><stop offset="0" stop-color="#9f2fff"/><stop offset="1" stop-color="#0bb1d3"/></linearGradient><path d="m12.279 59h2.492c1.345.641 8.789 4 17.229 4s15.884-3.359 17.229-4h2.492c4.565 0 8.279-3.714 8.279-8.279 0-.547-.055-1.094-.161-1.624l-3.839-19.194v-4.903c0-13.233-10.767-24-24-24s-24 10.767-24 24v4.903l-3.839 19.193c-.106.53-.161 1.077-.161 1.625 0 4.565 3.714 8.279 8.279 8.279zm31.469-21.354c-.233-.644-.624-1.204-1.13-1.646.84-.734 1.382-1.8 1.382-3 0-2.206-1.794-4-4.039-4-.838 0-1.642.257-2.324.745l-3.806 2.719c-.552-.286-1.168-.464-1.831-.464s-1.279.178-1.83.464l-3.806-2.72c-.683-.487-1.487-.744-2.364-.744-2.206 0-4 1.794-4 4 0 1.2.542 2.266 1.382 3-.506.442-.897 1.003-1.13 1.646-2.618-1.626-4.252-4.504-4.252-7.646 0-1.654 1.346-3 3-3h26c1.654 0 3 1.346 3 3 0 3.142-1.634 6.02-4.252 7.646zm-1.748 1.354c0 1.103-.897 2-2.039 2-.419 0-.821-.129-1.162-.373l-3.446-2.461c.406-.625.647-1.367.647-2.166s-.241-1.541-.647-2.166l3.446-2.461c.341-.244.743-.373 1.201-.373 1.103 0 2 .897 2 2s-.897 2-2 2v2c1.103 0 2 .897 2 2zm-18-2v-2c-1.103 0-2-.897-2-2s.897-2 2.039-2c.419 0 .821.129 1.162.372l3.446 2.461c-.406.626-.647 1.368-.647 2.167s.241 1.541.647 2.166l-3.446 2.461c-.341.244-.743.373-1.201.373-1.103 0-2-.897-2-2s.897-2 2-2zm10-1c0 1.103-.897 2-2 2s-2-.897-2-2 .897-2 2-2 2 .897 2 2zm-3.299 4.713-1.542 9.25c-1.168-.133-2.258-.612-3.149-1.387.104-2.153.991-4.162 2.525-5.697zm17.299-14.687c-.838-.635-1.87-1.026-3-1.026h-26c-1.13 0-2.162.391-3 1.026v-1.026c0-8.822 7.178-16 16-16s16 7.178 16 16zm-16 34.974c-7.325 0-14.064-2.768-16-3.637v-21.049c1.033 1.473 2.426 2.694 4.092 3.526.388 1.803 1.996 3.16 3.947 3.16.838 0 1.642-.257 2.324-.745l.116-.083c-1.602 1.913-2.479 4.302-2.479 6.828v.414l.293.293c1.478 1.479 3.443 2.293 5.535 2.293h1.019l1.077-6.461 1.209 8.461h1.039c2.092 0 4.058-.814 5.535-2.293l.293-.293v-1.101c0-2.358-.797-4.682-2.245-6.542l-2.504-3.22 2.386 1.704c.682.488 1.486.745 2.363.745 1.918 0 3.521-1.357 3.908-3.16 1.666-.831 3.059-2.052 4.092-3.526v21.049c-1.932.869-8.66 3.637-16 3.637zm1.348-19.639 2.829 3.637c1.176 1.512 1.823 3.4 1.823 5.315v.253c-.888.775-1.974 1.257-3.139 1.393zm24.652 9.36c0 3.462-2.816 6.279-6.279 6.279h-1.721v-26h4.181l3.697 18.491c.081.401.122.815.122 1.23zm-26-47.721c12.131 0 22 9.869 22 22v4h-4v-4c0-9.925-8.075-18-18-18s-18 8.075-18 18v4h-4v-4c0-12.131 9.869-22 22-22zm-25.878 46.49 3.697-18.49h4.181v26h-1.721c-3.463 0-6.279-2.817-6.279-6.279 0-.415.041-.829.122-1.231zm11.878 5.51h2v2h-2zm0-8h2v2h-2zm0 4h2v2h-2zm26-4h2v2h-2zm0-4h2v2h-2zm0 8h2v2h-2z" fill="url(#SVGID_1_)"/></svg>