<svg height="512" viewBox="0 0 512 512" width="512" xmlns="http://www.w3.org/2000/svg" xmlns:xlink="http://www.w3.org/1999/xlink"><linearGradient id="a" gradientUnits="userSpaceOnUse" x1="21.111" x2="517.683" y1="513.657" y2="17.086" data-name="New Gradient Swatch 1"><stop offset="0" stop-color="#003f8a"/><stop offset=".518" stop-color="#00d7df"/><stop offset="1" stop-color="#006df0"/></linearGradient><linearGradient id="b" x1="119.727" x2="616.299" xlink:href="#a" y1="612.273" y2="115.701"/><linearGradient id="c" x1="-130.273" x2="366.299" xlink:href="#a" y1="362.273" y2="-134.299"/><linearGradient id="d" x1="-139.217" x2="357.354" xlink:href="#a" y1="353.328" y2="-143.243"/><linearGradient id="e" x1="-148.162" x2="348.41" xlink:href="#a" y1="344.384" y2="-152.187"/><linearGradient id="f" x1="-62.273" x2="434.298" xlink:href="#a" y1="430.273" y2="-66.299"/><linearGradient id="g" x1="-40.273" x2="456.299" xlink:href="#a" y1="452.273" y2="-44.299"/><g><path d="m502.66 451.56-16-24a8.033 8.033 0 0 0 -6.66-3.56h-40v-72h24a8 8 0 0 0 8-8v-72a8 8 0 0 0 -8-8h-24v-16a88.106 88.106 0 0 0 -80-87.63v-32.37a40 40 0 0 0 -80 0v32h-16v-24a8 8 0 0 0 -8-8h-32a8 8 0 0 0 -8 8v24h-68.17a71.98 71.98 0 1 0 -84 27.82 88.433 88.433 0 0 0 -23.83 60.18v56a8 8 0 0 0 8 8h24v16a8 8 0 0 0 8 8h16v24a8 8 0 0 0 16 0v-24h16a8 8 0 0 0 8-8v-16h24a8 8 0 0 0 8-8v-32h96v152h-232a8.033 8.033 0 0 0 -6.66 3.56l-16 24a8.009 8.009 0 0 0 6.66 12.44h480a8.009 8.009 0 0 0 6.66-12.44zm-62.66-171.56h16v56h-16zm-144-152a24 24 0 0 1 48 0v32h-48zm-64 16h16v16h-16zm-200-24a56 56 0 1 1 56 56 56.062 56.062 0 0 1 -56-56zm88 200h-32v-8h32zm40-64a8 8 0 0 0 -8 8v32h-96v-48a72.329 72.329 0 0 1 27-56.19c1.65.11 3.32.19 5 .19a71.65 71.65 0 0 0 45.19-16h218.81a72.083 72.083 0 0 1 72 72v176h-144v-160a8 8 0 0 0 -8-8zm-129.05 192 5.33-8h439.44l5.33 8z" fill="url(#a)"/><path d="m384 408h24a8 8 0 0 0 8-8v-128a8 8 0 0 0 -8-8h-24a8 8 0 0 0 -8 8v128a8 8 0 0 0 8 8zm16-48h-8v-16h8zm0-32h-8v-16h8zm-8 64v-16h8v16zm8-112v16h-8v-16z" fill="url(#b)"/><circle cx="88" cy="144" fill="url(#c)" r="8"/><path d="m98.665 132.072a8 8 0 1 0 10.67-11.922 32 32 0 0 0 -42.67 0 8 8 0 1 0 10.669 11.923 16 16 0 0 1 21.331 0z" fill="url(#d)"/><path d="m114.665 114.183a8 8 0 1 0 10.67-11.922 56 56 0 0 0 -74.67 0 8 8 0 1 0 10.67 11.922 40 40 0 0 1 53.33 0z" fill="url(#e)"/><path d="m104 272h-32a8 8 0 0 0 0 16h32a8 8 0 0 0 0-16z" fill="url(#f)"/><path d="m136 272h-8a8 8 0 0 0 0 16h8a8 8 0 0 0 0-16z" fill="url(#g)"/></g></svg>