<svg id="Layer_5" enable-background="new 0 0 64 64" height="512" viewBox="0 0 64 64" width="512" xmlns="http://www.w3.org/2000/svg" xmlns:xlink="http://www.w3.org/1999/xlink"><linearGradient id="SVGID_1_" gradientUnits="userSpaceOnUse" x1="32" x2="32" y1="63" y2="1"><stop offset="0" stop-color="#9f2fff"/><stop offset="1" stop-color="#0bb1d3"/></linearGradient><path d="m53.354 49c1.066-1.313 1.646-2.938 1.646-4.652v-10.265c0-2.868-1.717-5.36-4.255-6.435 1.574-.981 2.757-2.535 3.224-4.405l.138-.549-.4-.4c-1.746-1.747-2.707-4.068-2.707-6.537v-2.757c0-6.617-5.383-12-12-12s-12 5.383-12 12v2.757c0 2.469-.961 4.79-2.707 6.536l-.4.4.138.549c.47 1.878 1.66 3.436 3.245 4.417-2.209.936-3.799 2.941-4.173 5.341h-17.103c-2.757 0-5 2.243-5 5v25h41 1 20v-14zm-20.048 0h-2.306v-2h2v-4.184c1.161-.414 2-1.514 2-2.816v-2c0-2.414-1.721-4.434-4-4.899v-4.254l1.821-.304c.206-.034.399-.097.595-.154l.096.766c.344 2.762 2.704 4.845 5.488 4.845s5.144-2.083 5.488-4.845l.096-.766c.195.058.389.12.595.154l1.821.304v11.153 2 1.246l-10.794 3.084c-1.356.387-2.409 1.403-2.9 2.67zm-4.306 4h-6.578c-1.829 0-3.577.874-4.675 2.337l-.492.656c-.083-.056-.169-.104-.255-.156v-4.837h12zm-12.288 5.126 2.874 2.874h-9.968l.938-1.875c.655-1.311 1.972-2.125 3.437-2.125 1.028 0 1.993.4 2.719 1.126zm6.288-9.126h-6v-7c0-.551.448-1 1-1h5zm2 0v-6.638c.523.407 1.155.638 1.828.638h.172v4h2v2zm4-4v-2h2v2zm7.328-32.914.672-.672.672.672c.581.581 1.385.914 2.207.914h4c.618 0 1.121.503 1.121 1.121v2.088c0 3.193-2.598 5.791-5.79 5.791h-.176c-3.327 0-6.034-2.692-6.034-6.002v-1.879c0-.617.503-1.119 1.121-1.119.822 0 1.626-.333 2.207-.914zm2.706 11.914h.176c.622 0 1.225-.081 1.805-.22.048 1.418.677 2.694 1.683 3.579l-.194 1.548c-.221 1.763-1.727 3.093-3.504 3.093s-3.283-1.33-3.504-3.093l-.194-1.548c1.019-.896 1.654-2.192 1.687-3.632.655.172 1.338.273 2.045.273zm9.966 14h4v2h-4zm-12.245 10.253 10.954-3.13 1.584 1.584 1.414-1.414-1.707-1.707v-1.586h4v2.348c0 1.443-.562 2.8-1.582 3.82-.622.622-1.394 1.086-2.232 1.344l-10.99 3.381c-.229.071-.468.107-.776.107-1.334 0-2.42-1.086-2.42-2.42 0-1.075.722-2.032 1.755-2.327zm16.245-14.17v1.917h-4v-6.803c2.326.475 4 2.494 4 4.886zm-26.875-10.816c1.858-2.066 2.875-4.71 2.875-7.51v-2.757c0-5.514 4.486-10 10-10s10 4.486 10 10v2.757c0 2.8 1.017 5.443 2.875 7.509-.644 1.788-2.205 3.108-4.106 3.425l-.769.128-1.492-.249c-1.453-.241-2.508-1.486-2.508-2.959v-.601c2.383-1.334 4-3.881 4-6.801v-2.088c0-1.721-1.4-3.121-3.121-3.121h-4c-.295 0-.584-.12-.793-.328l-1.086-1.086v-3.586h-2v3.586l-1.086 1.086c-.209.208-.498.328-.793.328-1.721 0-3.121 1.399-3.121 3.119v1.879c0 2.947 1.612 5.52 4 6.909v.705c0 1.473-1.055 2.717-2.507 2.959l-1.492.249-.769-.128c-1.902-.317-3.463-1.637-4.107-3.425zm2.875 5.93v3.803h-3.872c.42-1.898 1.917-3.403 3.872-3.803zm-26 8.803c0-1.654 1.346-3 3-3h24c1.654 0 3 1.346 3 3v2c0 .551-.448 1-1 1h-5.172c-.263 0-.521-.107-.707-.293l-1.707-1.707h-6.414c-1.654 0-3 1.346-3 3v13.091c-.33-.057-.665-.091-1.007-.091-2.228 0-4.23 1.238-5.227 3.23l-1.384 2.77h-4.382zm39 23h-19.586l-3.665-3.665.598-.797c.722-.963 1.872-1.538 3.075-1.538h7.921c.802 0 1.556.312 2.122.878l2.242 2.243c.566.567 1.32.879 2.121.879h6.172c.552 0 1 .449 1 1s-.448 1-1 1zm19 0h-15.184c.112-.314.184-.648.184-1 0-1.654-1.346-3-3-3h-6.172c-.263 0-.521-.107-.707-.293l-2.242-2.243c-.787-.787-1.794-1.258-2.879-1.4v-2.064h2.043c.215 2.238 2.088 4 4.443 4 .443 0 .881-.066 1.3-.196l10.988-3.38c.361-.111.708-.259 1.047-.424h10.179zm-52-16c2.206 0 4-1.794 4-4s-1.794-4-4-4-4 1.794-4 4 1.794 4 4 4zm0-6c1.103 0 2 .897 2 2s-.897 2-2 2-2-.897-2-2 .897-2 2-2zm0 16c2.206 0 4-1.794 4-4s-1.794-4-4-4-4 1.794-4 4 1.794 4 4 4zm0-6c1.103 0 2 .897 2 2s-.897 2-2 2-2-.897-2-2 .897-2 2-2zm20-11c0-.552.448-1 1-1s1 .448 1 1-.448 1-1 1-1-.448-1-1zm30 17h-2v-2h2zm-2 4v-2h2v2z" fill="url(#SVGID_1_)"/></svg>