<svg class="services__img" id="Layer_5" enable-background="new 0 0 64 64" height="512" viewBox="0 0 64 64" width="512" xmlns="http://www.w3.org/2000/svg" xmlns:xlink="http://www.w3.org/1999/xlink"><linearGradient id="SVGID_1_" gradientUnits="userSpaceOnUse" x1="32" x2="32" y1="63" y2="1"><stop offset="0" stop-color="#9f2fff"/><stop offset="1" stop-color="#0bb1d3"/></linearGradient><path d="m54.611 3.844-6.399-2.844h-24.424l-6.399 2.844c-1.968.875-3.737 2.211-5.115 3.865-2.111 2.533-3.274 5.745-3.274 9.043v14.248h9.989c.004.331.011.65.011 1 0 2.742-.257 6.044-.759 9.827l-11.913-11.913c-.581-.581-1.385-.914-2.207-.914-1.721 0-3.121 1.4-3.121 3.121 0 .834.324 1.618.914 2.207l15.104 15.104c-.984 5.284-1.979 9.284-1.988 9.325l-.207.826.783.335c.293.127 7.339 3.082 20.394 3.082s20.101-2.955 20.394-3.081l.783-.335-.207-.826c-.039-.159-3.97-16.01-3.97-26.758 0-.35.007-.669.011-1h9.989v-14.248c0-3.298-1.163-6.51-3.273-9.042-1.378-1.654-3.148-2.991-5.116-3.866zm-18.611 5.156c-3.519 0-6.432-2.613-6.92-6h13.84c-.488 3.387-3.401 6-6.92 6zm-8.64-4.503-1.864.772c-.227-.727-.374-1.487-.445-2.269h2.008c.057.514.161 1.013.301 1.497zm.764 1.848c.248.447.534.869.851 1.266l-1.423 1.423c-.493-.591-.921-1.235-1.283-1.921zm2.265 2.68c.397.318.819.604 1.266.852l-.768 1.855c-.686-.362-1.33-.791-1.921-1.283zm3.115 1.615c.484.14.983.244 1.496.301v2.008c-.782-.071-1.542-.219-2.268-.445zm3.496.301c.514-.057 1.013-.161 1.496-.301l.772 1.864c-.727.227-1.486.374-2.268.445zm4.113.79-.768-1.855c.447-.248.87-.534 1.266-.852l1.423 1.423c-.591.494-1.235.922-1.921 1.284zm3.335-2.697-1.423-1.423c.317-.397.604-.819.851-1.266l1.855.768c-.362.686-.79 1.33-1.283 1.921zm2.056-3.765-1.864-.772c.14-.484.244-.983.301-1.497h2.008c-.071.782-.218 1.542-.445 2.269zm-43.504 26.852c0-.618.503-1.121 1.121-1.121.295 0 .584.12.793.328l18.672 18.672-1.586 1.586-18.672-18.672c-.212-.212-.328-.493-.328-.793zm26 22.879v2h-2c-2.072 0-3.781-1.584-3.98-3.605l2.375-2.375c2.021.198 3.605 1.908 3.605 3.98zm32-26h-7.94c.296-7.5 1.652-9.293 1.647-9.293l-1.414-1.414c-.383.383-2.293 2.843-2.293 13.707 0 9.657 2.98 22.854 3.818 26.372-2.148.74-8.632 2.628-18.818 2.628-10.188 0-16.673-1.889-18.819-2.628.307-1.299.913-3.953 1.548-7.229l2.294 2.294c.224 3.104 2.816 5.563 5.977 5.563h4v-4c0-3.161-2.459-5.753-5.564-5.978l-5.423-5.423c.653-4.504.987-8.409.987-11.599 0-10.864-1.91-13.324-2.293-13.707l-1.449 1.377c.016.019 1.385 1.8 1.682 9.33h-7.94v-12.248c0-2.832.998-5.588 2.811-7.762 1.183-1.42 2.701-2.567 4.391-3.318l4.892-2.174c.745 6.464 6.245 11.502 12.906 11.502s12.161-5.038 12.907-11.503l4.892 2.174c1.689.751 3.208 1.898 4.391 3.318 1.812 2.175 2.81 4.931 2.81 7.763zm-10.827 16.034c.67 4.377 1.496 8.421 2.07 11.042l.208.946-.939.237c-1.35.342-2.814.642-4.352.891l-.32-1.975c1.13-.183 2.216-.394 3.242-.628-.562-2.626-1.285-6.285-1.886-10.211zm-14.173-21.034c-7.168 0-13 5.832-13 13s5.832 13 13 13 13-5.832 13-13-5.832-13-13-13zm10.895 11.563c-.923-.756-1.964-1.365-3.087-1.797.487-1.096.794-2.26.912-3.445 1.147 1.494 1.918 3.286 2.175 5.242zm-4.179 8.152c-1.002-.119-1.982-.412-2.903-.852.818-.534 1.517-1.233 2.051-2.051.439.921.732 1.901.852 2.903zm-13.432-13.43c1.002.119 1.982.412 2.904.852-.818.534-1.517 1.233-2.05 2.05-.442-.92-.734-1.9-.854-2.902zm7.716 11.614v-2.083c.847-.302 1.514-.969 1.816-1.816h2.083c-.399 1.956-1.943 3.5-3.899 3.899zm-5.899-3.899h2.083c.302.847.969 1.514 1.816 1.816v2.083c-1.956-.399-3.5-1.943-3.899-3.899zm3.899-5.899v2.083c-.847.302-1.514.969-1.816 1.816h-2.083c.399-1.956 1.943-3.5 3.899-3.899zm1 5.899c-.552 0-1-.449-1-1s.448-1 1-1 1 .449 1 1-.448 1-1 1zm4.899-2h-2.083c-.302-.847-.969-1.514-1.816-1.816v-2.083c1.956.399 3.5 1.943 3.899 3.899zm-4.899-6c-.497 0-.981.054-1.448.153.34-.961.825-1.859 1.448-2.649.623.791 1.108 1.688 1.448 2.649-.467-.099-.951-.153-1.448-.153zm-5.863 10.812c.534.818 1.233 1.517 2.051 2.051-.922.441-1.901.734-2.904.852.12-1.002.413-1.982.853-2.903zm5.863 3.188c.497 0 .981-.054 1.448-.153-.34.961-.825 1.859-1.448 2.649-.623-.791-1.108-1.688-1.448-2.649.467.099.951.153 1.448.153zm5.863-10.812c-.534-.818-1.232-1.517-2.05-2.05.922-.441 1.901-.734 2.903-.852-.12 1.001-.412 1.98-.853 2.902zm-2.629-3.996c-.432-1.123-1.042-2.165-1.797-3.087 1.956.257 3.748 1.028 5.242 2.175-1.184.119-2.348.425-3.445.912zm-6.468 0c-1.096-.487-2.261-.793-3.445-.912 1.494-1.147 3.286-1.918 5.242-2.175-.756.923-1.365 1.965-1.797 3.087zm-3.613 6.359c-.099.468-.153.952-.153 1.449s.054.981.153 1.449c-.961-.34-1.859-.825-2.65-1.449.791-.623 1.689-1.108 2.65-1.449zm3.613 9.257c.432 1.123 1.042 2.165 1.797 3.087-1.956-.257-3.748-1.028-5.242-2.175 1.184-.119 2.348-.425 3.445-.912zm6.468 0c1.096.487 2.261.793 3.445.912-1.494 1.147-3.286 1.918-5.242 2.175.756-.923 1.365-1.965 1.797-3.087zm3.613-6.359c.099-.468.153-.952.153-1.449s-.054-.981-.153-1.449c.961.34 1.858.825 2.65 1.449-.791.623-1.689 1.109-2.65 1.449zm-15.567-8.128c.119 1.184.425 2.349.912 3.445-1.123.432-2.165 1.041-3.087 1.797.257-1.956 1.028-3.748 2.175-5.242zm-2.175 8.116c.923.756 1.964 1.365 3.087 1.797-.487 1.096-.793 2.261-.912 3.445-1.147-1.494-1.918-3.286-2.175-5.242zm19.615 5.242c-.119-1.184-.425-2.348-.912-3.445 1.123-.432 2.165-1.041 3.087-1.797-.257 1.956-1.028 3.748-2.175 5.242zm-15.72-21.679h-6v-2h6zm19-1c0-.552.448-1 1-1s1 .448 1 1-.448 1-1 1-1-.448-1-1zm-4 0c0-.552.448-1 1-1s1 .448 1 1-.448 1-1 1-1-.448-1-1z" fill="url(#SVGID_1_)"/></svg>